{
  "accessors": [
    {
      "bufferView": 2,
      "componentType": 5126,
      "count": 406,
      "max": [
        8.993840217590332,
        10.06991958618164,
        2.4872899055480957
      ],
      "min": [
        -13.37067985534668,
        -1.9524600505828857,
        -1.0
      ],
      "type": "VEC3"
    },
    {
      "bufferView": 2,
      "byteOffset": 4872,
      "componentType": 5126,
      "count": 406,
      "max": [
        1.0,
        1.0,
        1.0
      ],
      "min": [
        -1.0,
        -1.0,
        -1.0
      ],
      "type": "VEC3"
    },
    {
      "bufferView": 1,
      "componentType": 5126,
      "count": 406,
      "max": [
        1.0,
        1.0
      ],
      "min": [
        0.0,
        0.0
      ],
      "type": "VEC2"
    },
    {
      "bufferView": 1,
      "byteOffset": 3248,
      "componentType": 5126,
      "count": 406,
      "max": [
        6.062069892883301,
        11.067119598388672
      ],
      "min": [
        -5.514249801635742,
        -10.067119598388672
      ],
      "type": "VEC2"
    },
    {
      "bufferView": 0,
      "componentType": 5125,
      "count": 918,
      "type": "SCALAR"
    },
    {
      "bufferView": 2,
      "byteOffset": 9744,
      "componentType": 5126,
      "count": 2178,
      "max": [
        6.40910005569458,
        0.578279972076416,
        2.3846800327301025
      ],
      "min": [
        -9.437859535217285,
        -4.33480978012085,
        -1.074180006980896
      ],
      "type": "VEC3"
    },
    {
      "bufferView": 2,
      "byteOffset": 35880,
      "componentType": 5126,
      "count": 2178,
      "max": [
        1.0,
        1.0,
        1.0
      ],
      "min": [
        -1.0,
        -1.0,
        -1.0
      ],
      "type": "VEC3"
    },
    {
      "bufferView": 1,
      "byteOffset": 6496,
      "componentType": 5126,
      "count": 2178,
      "max": [
        1.0,
        1.0
      ],
      "min": [
        0.0,
        0.0
      ],
      "type": "VEC2"
    },
    {
      "bufferView": 1,
      "byteOffset": 23920,
      "componentType": 5126,
      "count": 2178,
      "max": [
        1.0,
        1.0
      ],
      "min": [
        -0.24116000533103943,
        0.0
      ],
      "type": "VEC2"
    },
    {
      "bufferView": 0,
      "byteOffset": 3672,
      "componentType": 5125,
      "count": 6924,
      "type": "SCALAR"
    },
    {
      "bufferView": 2,
      "byteOffset": 62016,
      "componentType": 5126,
      "count": 15798,
      "max": [
        14.431139945983887,
        3.6285500526428223,
        3.0877199172973633
      ],
      "min": [
        -0.8016499876976013,
        -0.9346299767494202,
        -0.4307900071144104
      ],
      "type": "VEC3"
    },
    {
      "bufferView": 2,
      "byteOffset": 251592,
      "componentType": 5126,
      "count": 15798,
      "max": [
        0.9999865889549255,
        0.9999962449073792,
        1.0
      ],
      "min": [
        -0.999979555606842,
        -0.999973475933075,
        -1.0
      ],
      "type": "VEC3"
    },
    {
      "bufferView": 1,
      "byteOffset": 41344,
      "componentType": 5126,
      "count": 15798,
      "max": [
        1.0,
        1.0
      ],
      "min": [
        0.0,
        0.0
      ],
      "type": "VEC2"
    },
    {
      "bufferView": 0,
      "byteOffset": 31368,
      "componentType": 5125,
      "count": 30237,
      "type": "SCALAR"
    },
    {
      "bufferView": 2,
      "byteOffset": 441168,
      "componentType": 5126,
      "count": 3448,
      "max": [
        2.481339931488037,
        0.0037400000728666782,
        0.873520016670227
      ],
      "min": [
        -2.0120699405670166,
        -2.1969900131225586,
        -2.2973599433898926
      ],
      "type": "VEC3"
    },
    {
      "bufferView": 2,
      "byteOffset": 482544,
      "componentType": 5126,
      "count": 3448,
      "max": [
        1.0,
        1.0,
        1.0
      ],
      "min": [
        -1.0,
        -1.0,
        -1.0
      ],
      "type": "VEC3"
    },
    {
      "bufferView": 1,
      "byteOffset": 167728,
      "componentType": 5126,
      "count": 3448,
      "max": [
        1.0,
        1.0
      ],
      "min": [
        0.0,
        0.0
      ],
      "type": "VEC2"
    },
    {
      "bufferView": 0,
      "byteOffset": 152316,
      "componentType": 5125,
      "count": 4374,
      "type": "SCALAR"
    },
    {
      "bufferView": 2,
      "byteOffset": 523920,
      "componentType": 5126,
      "count": 5549,
      "max": [
        0.06590999662876129,
        1.3732199668884277,
        0.07434000074863434
      ],
      "min": [
        -4.819940090179443,
        -0.06590999662876129,
        -2.3262500762939453
      ],
      "type": "VEC3"
    },
    {
      "bufferView": 2,
      "byteOffset": 590508,
      "componentType": 5126,
      "count": 5549,
      "max": [
        1.0,
        1.0,
        0.999904453754425
      ],
      "min": [
        -1.0,
        -1.0,
        -0.999904453754425
      ],
      "type": "VEC3"
    },
    {
      "bufferView": 1,
      "byteOffset": 195312,
      "componentType": 5126,
      "count": 5549,
      "max": [
        1.0,
        1.0
      ],
      "min": [
        0.0,
        0.0
      ],
      "type": "VEC2"
    },
    {
      "bufferView": 0,
      "byteOffset": 169812,
      "componentType": 5125,
      "count": 23580,
      "type": "SCALAR"
    }
  ],
  "asset": {
    "extras": {
      "author": "fizzlefreshh (https://sketchfab.com/fizzlefreshh)",
      "license": "CC-BY-4.0 (http://creativecommons.org/licenses/by/4.0/)",
      "source": "https://sketchfab.com/3d-models/spooky-hallway-blender-cycles-bake-670fc17602434ce2a8d398e1a4c9d928",
      "title": "Spooky Hallway - Blender Cycles Bake"
    },
    "generator": "Sketchfab-12.68.0",
    "version": "2.0"
  },
  "bufferViews": [
    {
      "buffer": 0,
      "byteLength": 264132,
      "name": "floatBufferViews",
      "target": 34963
    },
    {
      "buffer": 0,
      "byteLength": 239704,
      "byteOffset": 264132,
      "byteStride": 8,
      "name": "floatBufferViews",
      "target": 34962
    },
    {
      "buffer": 0,
      "byteLength": 657096,
      "byteOffset": 503836,
      "byteStride": 12,
      "name": "floatBufferViews",
      "target": 34962
    }
  ],
  "buffers": [
    {
      "byteLength": 1160932,
      "uri": "scene.bin"
    }
  ],
  "images": [
    {
      "uri": "textures/cans_bake_baseColor.png"
    },
    {
      "uri": "textures/mirror_baseColor.png"
    },
    {
      "uri": "textures/paper_bake_baseColor.png"
    },
    {
      "uri": "textures/dresser_bake_baseColor.png"
    },
    {
      "uri": "textures/walls_bake_baseColor.png"
    }
  ],
  "materials": [
    {
      "doubleSided": true,
      "name": "cans_bake",
      "pbrMetallicRoughness": {
        "baseColorTexture": {
          "index": 0
        },
        "metallicFactor": 0.0,
        "roughnessFactor": 0.6
      }
    },
    {
      "doubleSided": true,
      "emissiveTexture": {
        "index": 1
      },
      "name": "mirror",
      "pbrMetallicRoughness": {
        "baseColorTexture": {
          "index": 1
        },
        "metallicFactor": 0.0,
        "roughnessFactor": 0.6
      }
    },
    {
      "doubleSided": true,
      "name": "paper_bake",
      "pbrMetallicRoughness": {
        "baseColorTexture": {
          "index": 2
        },
        "metallicFactor": 0.0,
        "roughnessFactor": 0.6
      }
    },
    {
      "doubleSided": true,
      "name": "dresser_bake",
      "pbrMetallicRoughness": {
        "baseColorTexture": {
          "index": 3
        },
        "metallicFactor": 0.0,
        "roughnessFactor": 0.6
      }
    },
    {
      "doubleSided": true,
      "emissiveFactor": [
        1.0,
        1.0,
        1.0
      ],
      "emissiveTexture": {
        "index": 4
      },
      "name": "walls_bake",
      "pbrMetallicRoughness": {
        "baseColorTexture": {
          "index": 4
        },
        "metallicFactor": 0.0,
        "roughnessFactor": 0.6
      }
    }
  ],
  "meshes": [
    {
      "name": "Cube_0",
      "primitives": [
        {
          "attributes": {
            "NORMAL": 1,
            "POSITION": 0,
            "TEXCOORD_0": 2,
            "TEXCOORD_1": 3
          },
          "indices": 4,
          "material": 4,
          "mode": 4
        }
      ]
    },
    {
      "name": "Cube.001_0",
      "primitives": [
        {
          "attributes": {
            "NORMAL": 6,
            "POSITION": 5,
            "TEXCOORD_0": 7,
            "TEXCOORD_1": 8
          },
          "indices": 9,
          "material": 3,
          "mode": 4
        }
      ]
    },
    {
      "name": "Cube.003_0",
      "primitives": [
        {
          "attributes": {
            "NORMAL": 11,
            "POSITION": 10,
            "TEXCOORD_0": 12
          },
          "indices": 13,
          "material": 2,
          "mode": 4
        }
      ]
    },
    {
      "name": "Cube.002_cell.008_0",
      "primitives": [
        {
          "attributes": {
            "NORMAL": 15,
            "POSITION": 14,
            "TEXCOORD_0": 16
          },
          "indices": 17,
          "material": 1,
          "mode": 4
        }
      ]
    },
    {
      "name": "Cylinder.002_0",
      "primitives": [
        {
          "attributes": {
            "NORMAL": 19,
            "POSITION": 18,
            "TEXCOORD_0": 20
          },
          "indices": 21,
          "material": 0,
          "mode": 4
        }
      ]
    }
  ],
  "nodes": [
    {
      "children": [
        1
      ],
      "matrix": [
        0.6666666865348816,
        0.0,
        0.0,
        0.0,
        0.0,
        1.4802974102831747e-16,
        -0.6666666865348816,
        0.0,
        0.0,
        0.6666666865348816,
        1.4802974102831747e-16,
        0.0,
        0.0,
        0.0,
        0.0,
        1.0
      ],
      "name": "Sketchfab_model"
    },
    {
      "children": [
        2,
        4,
        6,
        8,
        10
      ],
      "name": "Root"
    },
    {
      "children": [
        3
      ],
      "matrix": [
        1.0,
        0.0,
        0.0,
        0.0,
        0.0,
        1.0,
        0.0,
        0.0,
        0.0,
        0.0,
        1.0,
        0.0,
        0.0,
        0.0,
        1.02907,
        1.0
      ],
      "name": "Cube"
    },
    {
      "mesh": 0,
      "name": "Cube_0"
    },
    {
      "children": [
        5
      ],
      "matrix": [
        1.0,
        0.0,
        0.0,
        0.0,
        0.0,
        1.0,
        0.0,
        0.0,
        0.0,
        0.0,
        1.0,
        0.0,
        0.45225,
        2.38563,
        1.09713,
        1.0
      ],
      "name": "Cube.001"
    },
    {
      "mesh": 1,
      "name": "Cube.001_0"
    },
    {
      "children": [
        7
      ],
      "matrix": [
        1.0,
        0.0,
        0.0,
        0.0,
        0.0,
        1.0,
        0.0,
        0.0,
        0.0,
        0.0,
        1.0,
        0.0,
        -8.1307,
        -1.18103,
        0.28845000000000004,
        1.0
      ],
      "name": "Cube.003"
    },
    {
      "mesh": 2,
      "name": "Cube.003_0"
    },
    {
      "children": [
        9
      ],
      "matrix": [
        1.0,
        0.0,
        0.0,
        0.0,
        0.0,
        1.0,
        0.0,
        0.0,
        0.0,
        0.0,
        1.0,
        0.0,
        0.20803000000000002,
        2.93917,
        2.30851,
        1.0
      ],
      "name": "Cube.002_cell.008"
    },
    {
      "mesh": 3,
      "name": "Cube.002_cell.008_0"
    },
    {
      "children": [
        11
      ],
      "matrix": [
        -0.18154000000000003,
        -0.9833799999999999,
        0.0,
        0.0,
        0.014540000000000003,
        -0.002680000000000001,
        0.9998900000000001,
        0.0,
        -0.9832799999999999,
        0.18152000000000001,
        0.014780000000000003,
        0.0,
        -1.19579,
        -1.7963600000000002,
        0.09376000000000004,
        1.0
      ],
      "name": "Cylinder.002"
    },
    {
      "mesh": 4,
      "name": "Cylinder.002_0"
    }
  ],
  "samplers": [
    {
      "magFilter": 9729,
      "minFilter": 9987,
      "wrapS": 10497,
      "wrapT": 10497
    }
  ],
  "scene": 0,
  "scenes": [
    {
      "name": "Sketchfab_Scene",
      "nodes": [
        0
      ]
    }
  ],
  "textures": [
    {
      "sampler": 0,
      "source": 0
    },
    {
      "sampler": 0,
      "source": 1
    },
    {
      "sampler": 0,
      "source": 2
    },
    {
      "sampler": 0,
      "source": 3
    },
    {
      "sampler": 0,
      "source": 4
    }
  ]
}
